# xmcd
#
# Track frame offsets:
#	300
#	18147
#	34793
#	59090
#	80636
#	99747
#	121921
#	144515
#	162362
#	184276
#	208484
#	230598
#	243448
#	259317
#	280703
#	296620
#
# Disc length: 4211 seconds
#
# Revision: 1
# Processed by: cddbd v1.5.2PL0 Copyright (c) Steve Scherf et al.
# Submitted via: audiograbber 1.83.01
#
DISCID=f6106f10
DTITLE=Keith Urban - Days Go By
DYEAR=2005
DGENRE=
TTITLE0=Days Go By (Jeremy  Wheatley Mix)
TTITLE1=Somebody Like You
TTITLE2=Raining On Sunday
TTITLE3=You´re My Better Half
TTITLE4=You´ll Think Of Me
TTITLE5=You Won
TTITLE6=Making Memories Of Us
TTITLE7=You (Or Somebody Like You)
TTITLE8=Nobody Drinks Alone
TTITLE9=She´s Gotta Be
TTITLE10=Tonight I Wanna Cry
TTITLE11=You´re Not Alone Tonight
TTITLE12=Better Life
TTITLE13=Live To Love Another Day
TTITLE14=These Are The Days
TTITLE15=No Name
EXTD=
EXTT0=
EXTT1=
EXTT2=
EXTT3=
EXTT4=
EXTT5=
EXTT6=
EXTT7=
EXTT8=
EXTT9=
EXTT10=
EXTT11=
EXTT12=
EXTT13=
EXTT14=
EXTT15=
PLAYORDER=
